<svg xmlns="http://www.w3.org/2000/svg" viewBox="0 0 48 48"><path fill="#25D366" d="M24 4C12.95 4 4 12.95 4 24c0 3.95 1.05 7.66 2.88 10.88L4 44l9.12-2.88C16.34 42.95 20.05 44 24 44c11.05 0 20-8.95 20-20S35.05 4 24 4zm0 36c-3.59 0-6.93-1.07-9.8-2.88l-.7-.43-5.43 1.72 1.72-5.43-.43-.7C9.07 30.93 8 27.59 8 24c0-8.84 7.16-16 16-16s16 7.16 16 16-7.16 16-16 16z"/><path fill="#FFF" d="M33.61 28.2c-.56-.28-3.32-1.64-3.84-1.84-.52-.2-.9-.28-1.28.28-.38.56-1.48 1.84-1.8 2.2-.32.36-.64.4-1.2.12-.56-.28-2.36-.87-4.5-2.77-1.66-1.48-2.8-3.32-3.12-3.88-.32-.56-.03-.87.24-1.15.24-.24.56-.64.84-.96.28-.32.36-.56.56-.92.2-.36.08-.68-.04-.96-.12-.28-1.28-3.08-1.76-4.24-.48-1.16-.96-1-.96-1h-.88s-.8.08-1.2.4c-.4.32-1.52 1.48-1.52 3.64s1.56 4.2 1.76 4.48c.2.28 3.04 4.64 7.36 6.52 1.04.44 1.84.7 2.48.92 1.04.32 1.96.28 2.68.16.82-.12 2.56-1.04 2.92-2.04.36-1 .36-1.84.24-2.04-.12-.2-.44-.32-1-.6z"/></svg>