<?xml version="1.0" encoding="UTF-8"?>
<!DOCTYPE svg PUBLIC "-//W3C//DTD SVG 1.1//EN" "http://www.w3.org/Graphics/SVG/1.1/DTD/svg11.dtd">
<!-- Creator: CorelDRAW -->
<svg xmlns="http://www.w3.org/2000/svg" xml:space="preserve" width="125.46mm" height="173.57mm" version="1.1" shape-rendering="geometricPrecision" text-rendering="geometricPrecision" image-rendering="optimizeQuality" fill-rule="evenodd" clip-rule="evenodd"
viewBox="0 0 13715.29 18974.66"
 xmlns:xlink="http://www.w3.org/1999/xlink"
 xmlns:xodm="http://www.corel.com/coreldraw/odm/2003">
 <g id="Layer_x0020_1">
  <metadata id="CorelCorpID_0Corel-Layer"/>
  <path fill="#FFF212" fill-rule="nonzero" d="M12780.45 11053.8c0,1571.9 -759.33,3062.61 -2032.1,3986.81l-3286.96 2389.34c-140.15,-6740.96 -13.85,-9778.75 626.1,-14042.66 -143.36,66.2 -349.51,115.75 -583.38,145.33 -111.3,1034.76 -325.93,1204.08 -575.82,1204.08 -249.59,0 -462.77,-172.94 -572.2,-1208.12 -217.11,-29.48 -418.5,-76.03 -581.31,-141.3 632.41,4294.12 699.22,7505.15 538.59,14112.38l-35.68 -25.56 -3347.98 -2433.51c-1271.63,-924.19 -2031.68,-2414.9 -2031.68,-3986.81l-6.61 -8048.91c-304,65.68 -609.34,124.85 -891.41,271.84l0 7777.08c0,1864.31 892.85,3617.23 2401.76,4713.33l3477.38 2526.62 399.98 289.3 557.94 391.61 561.96 -392.74 401.02 -288.17 3476.35 -2526.62c1508.81,-1096.1 2401.76,-2849.01 2401.76,-4713.33l0 -7815.35c-309.17,-113.16 -607.26,-177.7 -904.63,-243.7l6.93 8059.04zm-5757.31 -10013.14c794.69,0 1439.1,-232.73 1439.1,-520.39 0,-287.03 -644.41,-520.28 -1439.1,-520.28 -795.11,0 -1439.19,233.25 -1439.19,520.28 0,287.65 644.08,520.39 1439.19,520.39zm-1566.11 1677.1c6.21,259 691.46,468.86 1525.56,468.86 834.21,0 1519.05,-209.86 1525.26,-468.86l0 -645.95c2211.65,75.3 4228.84,421.49 5207.44,795.21 0,-332.54 -202.11,-884.89 -533.1,-1056.49 -690.74,-359.02 -2082.46,-929.36 -4338.17,-1220.53 0,0 26.27,757.14 -1843.12,757.14 -1904.44,0 -1844.56,-774.94 -1843.52,-785.17 -2390.39,280.61 -3852.55,878.27 -4565.94,1248.97 -330.17,171.5 -531.66,724.05 -531.66,1056.08 925.02,-393.05 3056.4,-743.7 5397.24,-806.49l0 657.23zm-366.78 11470.23l0 -900.61 955.74 0c0,-332.13 -0.42,-653.91 -3.01,-965.97l-2439.3 0c-607.16,0 -1100.86,-493.59 -1100.86,-1100.76l0 -68.78c0,-607.48 493.7,-1101.17 1100.86,-1101.17l2393.69 0c-11.69,-334.62 -25.55,-659.71 -41.89,-977.16l-1457.09 0c-613.78,0 -1113.69,-499.59 -1113.69,-1114.51l0 -67.44c0,-614.83 499.91,-1114.31 1113.69,-1114.31l1290.67 0c-29.58,-313.2 -62.06,-626.2 -97.02,-940.44l-601.79 0 0 -888.91 -985.95 0 0 927.3c-944.67,185.35 -1659.93,1018.83 -1659.93,2016.37l0 67.44c0,474.35 162.09,910.84 432.05,1259.32 -781.97,294.48 -1339.49,1050.48 -1339.49,1933.51l0 68.78c0,1139.54 927.2,2066.73 2066.74,2066.73l500.62 0 0 900.61 985.95 0zm3560.65 0l0 -900.61 -955.95 0c0,-332.13 0.72,-653.91 3.2,-965.97l2439 0c607.16,0 1101.28,-493.59 1101.28,-1100.76l0 -68.78c0,-607.48 -494.12,-1101.17 -1101.28,-1101.17l-2393.38 0c11.69,-334.62 25.23,-659.71 41.57,-977.16l1457.09 0c614.09,0 1113.69,-499.59 1113.69,-1114.51l0 -67.44c0,-614.83 -499.59,-1114.31 -1113.69,-1114.31l-1290.25 0c29.17,-313.2 61.96,-626.2 97.02,-940.44l601.69 0 0 -888.91 985.94 0 0 927.3c944.36,185.35 1659.62,1018.83 1659.62,2016.37l0 67.44c0,474.35 -161.67,910.84 -431.74,1259.32 781.97,294.48 1339.17,1050.48 1339.17,1933.51l0 68.78c0,1139.54 -927.19,2066.73 -2066.74,2066.73l-500.31 0 0 900.61 -985.94 0z"/>
 </g>
</svg>
